<?xml version="1.0" encoding="UTF-8"?><svg id="Layer_1" xmlns="http://www.w3.org/2000/svg" width="16.2" height="16.62" xmlns:xlink="http://www.w3.org/1999/xlink" viewBox="0 0 16.2 16.62"><defs><clipPath id="clippath"><rect x=".98" y=".75" width="14.23" height="17.64" style="fill:none;"/></clipPath></defs><g style="clip-path:url(#clippath);"><path d="m9.29,6.15v4.15c0,.16-.12.29-.27.3,0,0-.01,0-.02,0h-2.97c-.16,0-.29-.12-.3-.28,0,0,0-.01,0-.02v-.59c0-.16.12-.29.28-.3,0,0,.01,0,.02,0h2.08v-3.26c0-.16.12-.29.27-.3,0,0,.01,0,.02,0h.59c.16,0,.29.12.3.27,0,0,0,.01,0,.02Zm3.18,5.79l.34-.58c.27-.61.39-1.28.34-1.95,0-.89-.23-1.76-.68-2.53-.44-.76-1.07-1.39-1.83-1.83-1.57-.9-3.49-.9-5.06,0-.76.44-1.39,1.07-1.84,1.83-.9,1.57-.9,3.49,0,5.06.44.76,1.07,1.39,1.84,1.83,1.57.9,3.49.9,5.06,0,.76-.44,1.39-1.07,1.83-1.84h0Zm1.8-6.1l.48.82c.38.87.55,1.81.48,2.75,0,1.26-.32,2.49-.95,3.57-.62,1.08-1.52,1.97-2.59,2.59-2.21,1.27-4.93,1.27-7.14,0-1.08-.62-1.97-1.51-2.59-2.59-1.27-2.21-1.27-4.93,0-7.15.62-1.08,1.52-1.97,2.59-2.59,2.21-1.27,4.93-1.27,7.14,0,1.08.62,1.97,1.52,2.59,2.59h0Z" style="fill:#a2a5a6;"/></g></svg>