<?xml version="1.0" encoding="UTF-8"?><svg id="Layer_1" xmlns="http://www.w3.org/2000/svg" width="16.2" height="16.62" xmlns:xlink="http://www.w3.org/1999/xlink" viewBox="0 0 16.2 16.62"><defs><clipPath id="clippath"><rect x="1.01" y=".93" width="14.17" height="16.21" style="fill:none;"/></clipPath></defs><g style="clip-path:url(#clippath);"><path d="m2.66,15.02h10.83V6.71H2.66v8.31Zm2.72-9.95v-2.45c0-.14-.11-.27-.25-.27,0,0-.01,0-.02,0h-.55c-.15,0-.27.11-.27.25,0,0,0,.01,0,.02v2.45c0,.15.11.27.25.27,0,0,.01,0,.02,0h.55c.14,0,.27-.11.27-.25,0,0,0-.01,0-.02Zm6.54,0v-2.45c0-.15-.11-.27-.25-.27,0,0-.01,0-.02,0h-.55c-.14,0-.27.11-.27.25,0,0,0,.01,0,.02v2.45c0,.14.11.27.25.27,0,0,.01,0,.02,0h.55c.15,0,.27-.11.27-.25,0,0,0-.01,0-.02Zm3.27-.54v10.9c0,.6-.49,1.08-1.09,1.09H2.1c-.6,0-1.08-.49-1.09-1.09V4.53c0-.6.49-1.08,1.09-1.09h1.09v-.82c0-.75.61-1.36,1.36-1.36h.55c.75,0,1.36.61,1.36,1.36v.82h3.27v-.82c0-.75.61-1.36,1.36-1.36h.55c.75,0,1.36.61,1.36,1.36v.82h1.09c.6,0,1.08.49,1.09,1.09h0Z" style="fill:#125d89;"/></g></svg>