<?xml version="1.0" encoding="UTF-8"?><svg id="Layer_1" xmlns="http://www.w3.org/2000/svg" width="16.2" height="16.62" viewBox="0 0 16.2 16.62"><path d="m8.88,16.37c-1.01.04-2.01-.19-2.91-.66-.75-.42-1.35-1.06-1.72-1.84-.4-.87-.6-1.81-.6-2.77v-3.04c0-.95.21-1.9.61-2.76.37-.78.97-1.42,1.72-1.84.9-.47,1.9-.7,2.91-.66.78-.02,1.57.1,2.31.34.6.19,1.15.5,1.64.9.41.34.74.77.98,1.24.22.43.34.91.36,1.39.01.1-.03.21-.11.28-.08.07-.18.11-.29.11h-1.03c-.11,0-.21-.03-.29-.09-.09-.09-.16-.2-.19-.33-.15-.71-.58-1.33-1.2-1.72-.67-.36-1.43-.53-2.19-.5-.9-.05-1.78.27-2.44.88-.66.8-.98,1.82-.9,2.85v2.87c-.09,1.03.23,2.06.9,2.86.66.62,1.54.93,2.44.88.76.03,1.52-.15,2.19-.5.62-.38,1.05-1.01,1.2-1.72.03-.13.09-.24.19-.33.08-.06.19-.1.29-.09h1.03c.11,0,.21.04.29.11.08.07.12.17.11.28-.02.48-.15.96-.36,1.39-.24.48-.57.9-.98,1.24-.48.4-1.04.71-1.64.9-.75.24-1.53.35-2.31.34Zm-6.43-4.68c-.23.01-.42-.16-.43-.39,0-.01,0-.03,0-.04v-.65c-.01-.23.16-.42.39-.43.01,0,.03,0,.04,0h6.84c.23-.01.42.16.43.39,0,.01,0,.03,0,.04v.65c.01.23-.16.42-.39.43-.01,0-.03,0-.04,0H2.45Zm0-2.67c-.23.01-.42-.16-.43-.39,0-.01,0-.03,0-.04v-.65c-.01-.23.16-.42.39-.43.01,0,.03,0,.04,0h6.84c.23-.01.42.16.43.39,0,.01,0,.03,0,.04v.65c.01.23-.16.42-.39.43-.01,0-.03,0-.04,0H2.45Z" style="fill:#a2a5a6;"/><path d="m8.67,16.63c-.98,0-1.95-.24-2.82-.69-.81-.45-1.44-1.13-1.83-1.96-.3-.65-.49-1.33-.58-2.04h-.99c-.36,0-.67-.27-.69-.63v-.71c-.02-.35.26-.66.63-.68h1v-.65h-.94s-.02,0-.03,0c-.35,0-.64-.28-.66-.63v-.71c0-.16.05-.33.17-.46s.28-.21.46-.22h1.05c.09-.71.28-1.4.58-2.05.39-.83,1.02-1.5,1.82-1.95.94-.49,1.99-.73,3.04-.69.79-.01,1.61.1,2.38.35.63.2,1.21.52,1.72.94.44.37.79.81,1.05,1.32.23.47.36.97.39,1.49.02.17-.05.36-.2.48-.12.1-.28.17-.44.17h-1.03c-.15,0-.32-.05-.45-.14-.15-.14-.24-.3-.28-.48-.13-.65-.53-1.22-1.09-1.56-.62-.33-1.33-.49-2.05-.46-.85-.04-1.67.25-2.27.81-.42.51-.69,1.12-.79,1.77h3.47c.15-.02.33.05.46.17.13.12.21.28.22.46v.71c.02.35-.26.66-.63.68h-3.55v.65h3.5c.16-.02.33.05.46.17.13.12.21.28.22.46v.71c0,.16-.05.33-.17.46-.12.13-.28.21-.46.22h-3.52c.1.65.38,1.26.81,1.78.58.54,1.4.85,2.23.79.74.03,1.45-.14,2.09-.47.54-.34.94-.91,1.07-1.55.04-.18.13-.34.26-.47.15-.12.31-.16.47-.16h1.02c.18.02.33.06.46.17.14.12.21.31.19.5-.02.5-.15,1-.39,1.47-.26.51-.61.96-1.04,1.32-.51.42-1.09.74-1.72.95-.77.25-1.58.37-2.39.35-.07,0-.14,0-.21,0Zm-4.72-4.68c.08.63.26,1.24.53,1.82.35.73.91,1.33,1.62,1.73.85.44,1.81.67,2.78.63h.01c.76.02,1.51-.1,2.23-.33.57-.18,1.09-.47,1.55-.85.38-.32.69-.71.92-1.16.2-.4.32-.84.34-1.29l-.02-.08s-.08-.04-.12-.04h-1.03c-.06,0-.1.01-.15.04-.04.04-.08.11-.09.19-.16.78-.64,1.46-1.31,1.88-.72.39-1.52.57-2.33.54-.94.06-1.9-.29-2.6-.95-.52-.62-.84-1.35-.95-2.12h-1.37Zm-.55-1.52h-.94c-.12,0-.19.08-.18.17v.67c0,.12.08.18.17.18h.96c0-.11,0-.23,0-.34v-.68Zm2.39,1.02h3.51c.12,0,.19-.08.18-.17v-.67c0-.07-.02-.11-.05-.14-.03-.03-.07-.04-.12-.04h-3.51v.6c-.01.14-.02.28-.01.42Zm-1.88,0h1.38c0-.15,0-.29.01-.44v-.58h-1.4v.68c0,.11,0,.23,0,.34Zm0-2.17v.65h1.4v-.65h-1.4Zm-.49-1.52h-.95c-.07,0-.11.02-.14.05s-.04.07-.04.12v.67c0,.12.08.19.17.18h.96v-.7c0-.11,0-.21,0-.32Zm2.39,1.02h3.5c.07,0,.11-.02.14-.05.03-.03.04-.07.04-.12v-.67c0-.07-.02-.11-.05-.14-.03-.03-.07-.04-.12-.04h-3.52c0,.12,0,.25.01.38v.64Zm-1.9,0h1.4v-.62c-.01-.13-.02-.27-.01-.4h-1.38c0,.1,0,.21,0,.32v.7Zm4.78-5.72c-.91,0-1.79.22-2.59.63-.7.39-1.26.99-1.61,1.72-.27.59-.45,1.21-.53,1.84h1.37c.1-.77.42-1.5.93-2.11.73-.68,1.68-1.01,2.64-.97.78-.03,1.58.16,2.29.53.69.43,1.17,1.11,1.33,1.89.02.08.06.15.12.2.02.01.07.03.11.03h1.04s.09-.02.13-.04h0s.03-.08.03-.08c-.02-.45-.13-.88-.34-1.29-.22-.45-.53-.84-.92-1.16-.46-.38-.98-.67-1.55-.85-.72-.23-1.49-.35-2.23-.33-.07,0-.14,0-.21,0Z" style="fill:#a2a5a6;"/></svg>