<?xml version="1.0" encoding="UTF-8"?><svg id="Layer_1" xmlns="http://www.w3.org/2000/svg" width="16.2" height="16.62" viewBox="0 0 16.2 16.62"><path d="m8.88,16.37c-1.01.04-2.01-.19-2.91-.66-.75-.42-1.35-1.06-1.72-1.84-.4-.87-.6-1.81-.6-2.77v-3.04c0-.95.21-1.9.61-2.76.37-.78.97-1.42,1.72-1.84.9-.47,1.9-.7,2.91-.66.78-.02,1.57.1,2.31.34.6.19,1.15.5,1.64.9.41.34.74.77.98,1.24.22.43.34.91.36,1.39.01.1-.03.21-.11.28-.08.07-.18.11-.29.11h-1.03c-.11,0-.21-.03-.29-.09-.09-.09-.16-.2-.19-.33-.15-.71-.58-1.33-1.2-1.72-.67-.36-1.43-.53-2.19-.5-.9-.05-1.78.27-2.44.88-.66.8-.98,1.82-.9,2.85v2.87c-.09,1.03.23,2.06.9,2.86.66.62,1.54.93,2.44.88.76.03,1.52-.15,2.19-.5.62-.38,1.05-1.01,1.2-1.72.03-.13.09-.24.19-.33.08-.06.19-.1.29-.09h1.03c.11,0,.21.04.29.11.08.07.12.17.11.28-.02.48-.15.96-.36,1.39-.24.48-.57.9-.98,1.24-.48.4-1.04.71-1.64.9-.75.24-1.53.35-2.31.34Zm-6.43-4.68c-.23.01-.42-.16-.43-.39,0-.01,0-.03,0-.04v-.65c-.01-.23.16-.42.39-.43.01,0,.03,0,.04,0h6.84c.23-.01.42.16.43.39,0,.01,0,.03,0,.04v.65c.01.23-.16.42-.39.43-.01,0-.03,0-.04,0H2.45Zm0-2.67c-.23.01-.42-.16-.43-.39,0-.01,0-.03,0-.04v-.65c-.01-.23.16-.42.39-.43.01,0,.03,0,.04,0h6.84c.23-.01.42.16.43.39,0,.01,0,.03,0,.04v.65c.01.23-.16.42-.39.43-.01,0-.03,0-.04,0H2.45Z" style="fill:#125d89; stroke:#125d89; stroke-width:.5px;"/></svg>