<?xml version="1.0" encoding="UTF-8"?><svg id="Layer_1" xmlns="http://www.w3.org/2000/svg" width="16.2" height="16.62" viewBox="0 0 16.2 16.62"><path d="m10.24,2.54h-3.97c-.55,0-1-.45-1-1s.45-1,1-1h3.97c.55,0,1,.45,1,1s-.45,1-1,1Z" style="fill:#a2a5a6;"/><path d="m8.25,4.79c-.55,0-1-.45-1-1V1.54c0-.55.45-1,1-1s1,.45,1,1v2.25c0,.55-.45,1-1,1Z" style="fill:#a2a5a6;"/><g><circle cx="8.1" cy="10.17" r="6.38" style="fill:none;"/><path d="m8.1,16.69c-3.6,0-6.53-2.93-6.53-6.53s2.93-6.53,6.53-6.53,6.53,2.93,6.53,6.53-2.93,6.53-6.53,6.53Zm0-11.05c-2.5,0-4.53,2.03-4.53,4.53s2.03,4.53,4.53,4.53,4.53-2.03,4.53-4.53-2.03-4.53-4.53-4.53Z" style="fill:#a2a5a6;"/></g><g><path d="m7.98,7.06v3.11l2.18-2.2c-.3-.27-.64-.49-1-.66-.38-.15-.77-.23-1.18-.25Z" style="fill:#a2a5a6;"/><path d="m7.48,11.38v-4.86l.53.03c.46.03.9.12,1.33.29.44.2.82.45,1.16.76l.39.35-3.4,3.43Zm1-3.76v1.33l.93-.94c-.15-.1-.3-.18-.46-.25-.15-.06-.31-.1-.47-.14Z" style="fill:#a2a5a6;"/></g></svg>