<svg xmlns="http://www.w3.org/2000/svg" width="21.304" height="22.506" viewBox="0 0 21.304 22.506"><g transform="translate(-4.186 -0.207)"><g transform="translate(25.49 0.207) rotate(90)" fill="none"><path d="M8.6,5.022a3,3,0,0,1,5.305,0L20.181,16.9a3,3,0,0,1-2.653,4.4H4.977a3,3,0,0,1-2.653-4.4Z" stroke="none"/><path d="M 11.25298881530762 5.423271179199219 C 11.07176876068115 5.423271179199219 10.62283897399902 5.475200653076172 10.36875915527344 5.956220626831055 L 4.093158721923828 17.83731079101562 C 3.855039596557617 18.28811073303223 4.033248901367188 18.67510032653809 4.120918273925781 18.82056045532227 C 4.208599090576172 18.96602058410645 4.467557907104492 19.30434989929199 4.977388381958008 19.30434989929199 L 17.52858924865723 19.30434989929199 C 18.03841781616211 19.30434989929199 18.29737854003906 18.96602058410645 18.38505935668945 18.82056045532227 C 18.47272872924805 18.67510032653809 18.65093803405762 18.28811073303223 18.41281890869141 17.83730125427246 L 12.1372184753418 5.956220626831055 C 11.88313865661621 5.475200653076172 11.43420886993408 5.423271179199219 11.25298881530762 5.423271179199219 M 11.25298881530762 3.423271179199219 C 12.29782867431641 3.423271179199219 13.3426685333252 3.956220626831055 13.90567874908447 5.022121429443359 L 20.18127822875977 16.90320014953613 C 21.2365779876709 18.90110015869141 19.7880687713623 21.30434989929199 17.52858924865723 21.30434989929199 L 4.977388381958008 21.30434989929199 C 2.71790885925293 21.30434989929199 1.269399642944336 18.90110015869141 2.324699401855469 16.90320014953613 L 8.600298881530762 5.022121429443359 C 9.163309097290039 3.956220626831055 10.20814895629883 3.423271179199219 11.25298881530762 3.423271179199219 Z" stroke="none" fill="#f08922"/></g></g></svg>