<?xml version="1.0" encoding="utf-8"?>
<!-- Generator: Adobe Illustrator 27.2.0, SVG Export Plug-In . SVG Version: 6.00 Build 0)  -->
<svg version="1.1" id="Layer_1" xmlns="http://www.w3.org/2000/svg" xmlns:xlink="http://www.w3.org/1999/xlink" x="0px" y="0px"
	 viewBox="0 0 21.3 22.5" style="enable-background:new 0 0 21.3 22.5;" xml:space="preserve">
<style type="text/css">
	.st0{fill:none;}
	.st1{fill:#F08922;}
</style>
<g transform="translate(-4.186 -0.207)">
	<g transform="translate(25.49 0.207) rotate(90)">
		<path class="st0" d="M8.6,5c0.8-1.5,2.6-2,4.1-1.3c0.5,0.3,1,0.7,1.3,1.3l6.3,11.9c0.8,1.5,0.2,3.3-1.3,4.1
			c-0.4,0.2-0.9,0.3-1.4,0.3H5c-1.7,0-3-1.3-3-3c0-0.5,0.1-1,0.3-1.4L8.6,5z"/>
		<path class="st1" d="M11.3,3.4c1,0,2.1,0.5,2.7,1.6l6.3,11.9c1.1,2-0.4,4.4-2.7,4.4H5c-2.3,0-3.7-2.4-2.7-4.4L8.6,5
			C9.2,4,10.2,3.4,11.3,3.4z"/>
	</g>
</g>
</svg>
