<?xml version="1.0" encoding="utf-8"?>
<!-- Generator: Adobe Illustrator 27.2.0, SVG Export Plug-In . SVG Version: 6.00 Build 0)  -->
<svg version="1.1" id="Layer_1" xmlns="http://www.w3.org/2000/svg" xmlns:xlink="http://www.w3.org/1999/xlink" x="0px" y="0px"
	 viewBox="0 0 85 34" style="enable-background:new 0 0 85 34;" xml:space="preserve">
<style type="text/css">
	.st0{clip-path:url(#SVGID_00000034048593664580069660000007344710603661063349_);fill:#FFFFFF;}
	.st1{clip-path:url(#SVGID_00000034048593664580069660000007344710603661063349_);fill:#C4EAFF;}
</style>
<g>
	<defs>
		<rect id="SVGID_1_" width="85" height="34"/>
	</defs>
	<clipPath id="SVGID_00000097490502931577343170000008306614414083225010_">
		<use xlink:href="#SVGID_1_"  style="overflow:visible;"/>
	</clipPath>
	<path style="clip-path:url(#SVGID_00000097490502931577343170000008306614414083225010_);fill:#FFFFFF;" d="M3.7,0.9
		c0,0,1.5,2.5,3.9,4c1.3,0.8,2.5,1.7,5.8,2c2.8,0.3,5.5-0.5,8.3-0.7c2.8-0.2,6-0.2,8.6,1.2c-4.2-0.3-8,1-10.9,3.7
		C11.8,18.5,8,16.5,7,16c-1.8-0.9-3.9-4.4-3.6-13.3C3.5,2.1,3.5,1.4,3.7,0.9"/>
	<path style="clip-path:url(#SVGID_00000097490502931577343170000008306614414083225010_);fill:#FFFFFF;" d="M20.7,12.3
		c2.1-1,4.4-2,6.2-2.6c1.9-0.7,3.5-0.9,5.6-0.4c1,0.2,2.2,0.7,3.5,1.1c1.3,0.3,2.6,0.5,3.9,0.4c2.5-0.2,4.7-1.3,6.7-2.3
		C47.9,7.8,50.8,6,55,5.1C58,4.4,61.2,4,64.3,5c0.8,0.2,1.5,0.6,2.2,0.9c0.6,0.3,1.3,0.6,2,0.8c1.4,0.5,2.7,1,4.1,1.3
		c2.7,0.8,5.7,0.4,8.3-0.8c0,0-0.2,0.2-0.7,0.7c-0.5,0.4-2.9,2.4-5.9,3.1c-2.4,0.5-4.3,0.4-6.3,0.1c-7.8-1.4-8.9-0.3-12.2,1.1
		c-2.6,1.1-7.6,3.3-11,3.7c-5.2,0.5-8-1.7-8.7-2c-1.7-0.8-3.9-2.7-6-3c-1-0.1-2.7-0.1-4.2,0.1C25.2,11.3,20.7,12.3,20.7,12.3"/>
	<path style="clip-path:url(#SVGID_00000097490502931577343170000008306614414083225010_);fill:#C4EAFF;" d="M83,27.8
		c-0.7,0.3-2.1,0.5-4,0.7c-1.9,0.1-4.4-0.1-6.8-0.9c-1.3-0.4-4.4-2.2-6.5-3.8c-1.1-0.8-3.8-2.5-7.2-2.5c-2.5-0.1-5.3,0.7-8,1.2
		c1.6-1.1,3.2-2.3,5-3.4c1.8-1.1,4-2.2,6.5-2.1c1.2,0.1,3.4,0.5,5.9,2.1c1.5,0.9,3.7,2.7,4.9,3.8c1.4,1.2,4.7,3.3,6.9,4.2
		C80.9,27.7,82.5,27.9,83,27.8"/>
	<path style="clip-path:url(#SVGID_00000097490502931577343170000008306614414083225010_);fill:#C4EAFF;" d="M65.6,14.5
		c-3.4-0.3-6.7,0.6-9.2,1.8c-1.2,0.6-8.2,5.5-12.7,7.1c-2.2,0.7-4.9,1.1-7.3,0.1c-1.5-0.6-2.5-1.6-3.8-2.1c-1.2-0.5-2.6-0.8-3.9-0.8
		c-2.7,0-5.7,0.5-8.5,1.3c-2.3,0.6-4.6,0.9-6.8,0.7c-3.2-0.2-8.2-1.7-10.8-3.2c0,0,1.4,0.3,3.5,0.3c2.1,0,4.8-0.3,7.2-1.2
		c1-0.4,5.5-2.9,6.6-3.5c2.2-1.1,3.5-1.6,4.7-1.8c3-0.7,5.6,0.2,7.1,0.7c4.5,1.7,8.4,5.3,10.8,5.6c2.7,0.3,5.5-1.3,9.5-3.1
		C57.5,13.7,63,13.9,65.6,14.5"/>
	<path style="clip-path:url(#SVGID_00000097490502931577343170000008306614414083225010_);fill:#FFFFFF;" d="M10.6,30.8
		c-0.2-0.1-0.5-0.1-0.6-0.2c-0.2-0.1-0.2-0.1-0.2-0.1l-0.1-0.1c0,0,0-0.1,0-0.3c0-0.1,0.1-0.4,0.1-0.6c0-0.2,0-0.5,0-0.7l0.8-0.1
		c0,0.4,0,0.6,0.1,0.8c0.1,0.2,0.2,0.3,0.3,0.4s0.4,0.1,0.6,0.1c0.3,0,0.6-0.1,0.7-0.2c0.2-0.1,0.3-0.3,0.3-0.6
		c0-0.2-0.1-0.4-0.3-0.5c-0.2-0.1-0.5-0.3-0.9-0.5c0,0-0.1,0-0.2-0.1c-0.5-0.2-0.9-0.5-1.1-0.7c-0.3-0.3-0.4-0.6-0.4-1
		c0-0.4,0.1-0.7,0.3-1c0.2-0.3,0.5-0.5,0.9-0.7c0.4-0.2,0.8-0.2,1.3-0.2c0.3,0,0.6,0,0.8,0.1c0.2,0,0.4,0.1,0.6,0.1
		c0.1,0,0.2,0.1,0.3,0.1l0.1,0.1c0,0,0,0.1-0.1,0.3c0,0.2-0.1,0.4-0.1,0.6c0,0.2-0.1,0.5-0.1,0.8L13,26.5L13,26.5c0,0,0-0.1,0-0.1
		c0-0.1,0-0.1,0-0.2c0-0.3-0.1-0.5-0.2-0.6c-0.1-0.1-0.4-0.2-0.7-0.2c-0.3,0-0.5,0.1-0.7,0.2c-0.2,0.1-0.3,0.3-0.3,0.5
		c0,0.1,0.1,0.3,0.2,0.4s0.2,0.2,0.4,0.3c0.2,0.1,0.4,0.2,0.7,0.4c0.4,0.2,0.7,0.3,0.9,0.5c0.2,0.1,0.4,0.3,0.6,0.5
		c0.2,0.2,0.2,0.5,0.2,0.8c0,0.4-0.1,0.7-0.3,1c-0.2,0.3-0.5,0.5-0.9,0.7c-0.4,0.2-0.9,0.2-1.4,0.2C11.1,30.9,10.8,30.9,10.6,30.8"
		/>
	<path style="clip-path:url(#SVGID_00000097490502931577343170000008306614414083225010_);fill:#FFFFFF;" d="M15.2,30.3
		c-0.4-0.4-0.6-0.9-0.6-1.6c0-0.5,0.1-0.9,0.3-1.3s0.5-0.7,0.8-0.9c0.4-0.2,0.8-0.3,1.2-0.3c0.2,0,0.4,0,0.6,0s0.3,0.1,0.4,0.1
		s0.2,0,0.2,0.1l0,0.1c0,0,0,0.1,0,0.3c0,0.1-0.1,0.3-0.1,0.5c0,0.2-0.1,0.5-0.1,0.7l-0.6,0v-0.3c0-0.2,0-0.4-0.2-0.5S17,27,16.8,27
		c-0.3,0-0.5,0.1-0.7,0.3s-0.2,0.5-0.2,1c0,0.5,0.1,0.9,0.3,1.2s0.5,0.4,0.8,0.4c0.2,0,0.3,0,0.5-0.1c0.1,0,0.3-0.1,0.4-0.1
		c0.1,0,0.2-0.1,0.2-0.1l0.1,0l0.1,0.5c0,0-0.1,0.1-0.3,0.2c-0.2,0.1-0.4,0.2-0.6,0.3s-0.4,0.2-0.6,0.2
		C16.1,30.9,15.5,30.7,15.2,30.3"/>
	<path style="clip-path:url(#SVGID_00000097490502931577343170000008306614414083225010_);fill:#FFFFFF;" d="M19.1,30.1
		c0.1-0.1,0.1-0.2,0.1-0.4V25c0-0.2,0-0.4-0.1-0.4c-0.1-0.1-0.2-0.1-0.3-0.1h-0.2l0,0l0.1-0.5c0.7-0.1,1.3-0.2,2-0.3l0.1,0.2
		c-0.1,0.1-0.1,0.4-0.2,1c0,0.6-0.1,1.3-0.1,2.3c0.2-0.2,0.4-0.4,0.7-0.6c0.3-0.2,0.5-0.3,0.6-0.3c0.5,0,0.8,0.1,1.1,0.3
		c0.2,0.2,0.4,0.5,0.4,0.9c0,0.1,0,0.5-0.1,1c-0.1,0.6-0.1,1.1-0.1,1.3c0,0.2,0,0.3,0.1,0.4s0.1,0.1,0.2,0.1l0.3,0l0,0l-0.1,0.6
		h-0.2c-0.4,0-0.6,0-0.8,0c-0.2,0-0.6,0-1.1,0.1l0-0.6c0.2,0,0.3-0.1,0.4-0.2s0.1-0.2,0.1-0.4l0-1.7c0-0.6-0.2-0.8-0.6-0.8
		c-0.1,0-0.2,0-0.4,0.1s-0.3,0.2-0.5,0.3c0,0.4,0,1.1,0,2.1c0,0.2,0,0.3,0.1,0.3c0,0.1,0.1,0.1,0.2,0.1h0.2l0,0l-0.1,0.6
		c-0.1,0-0.1,0-0.2,0c-0.4,0-0.7,0-0.9,0c-0.4,0-0.7,0-1.1,0l0.1-0.6C18.9,30.2,19,30.2,19.1,30.1"/>
	<path style="clip-path:url(#SVGID_00000097490502931577343170000008306614414083225010_);fill:#FFFFFF;" d="M24.6,29.2
		c-0.2-0.9-0.4-1.5-0.5-1.8c-0.1-0.3-0.3-0.5-0.6-0.5l0,0l0.1-0.5h0.9c0.3,0,0.5,0,0.8,0s0.4,0,0.5,0l0,0l-0.1,0.5
		c-0.2,0-0.3,0-0.4,0.1s-0.1,0.1-0.1,0.2c0,0.1,0.1,0.5,0.2,1.2s0.3,1.1,0.4,1.4h0.1c0.2-0.5,0.5-1.3,0.8-2.4c0-0.1-0.1-0.3-0.2-0.3
		s-0.2-0.1-0.4-0.1l0,0l0.1-0.5h0.9c0.3,0,0.5,0,0.8,0c0.2,0,0.4,0,0.5,0l0,0l-0.1,0.5c-0.2,0-0.3,0-0.4,0.1c0,0-0.1,0.1-0.1,0.2
		c0,0.1,0.1,0.5,0.2,1.2s0.3,1.1,0.4,1.4h0.1c0.3-0.8,0.5-1.4,0.6-1.8c0.1-0.4,0.2-0.7,0.2-0.8c0-0.1,0-0.1-0.1-0.2c0,0-0.1,0-0.2,0
		h-0.3l0-0.1l0.1-0.5c0.1,0,0.2,0,0.4,0c0.2,0,0.4,0,0.6,0h0.9l-0.1,0.6c-0.1,0-0.2,0.1-0.3,0.1s-0.1,0.2-0.2,0.4l-1.2,3.3l-1.2,0.1
		c0-0.1-0.2-0.7-0.4-1.8l-0.2-0.6h-0.1l-0.7,2.3l-1.2,0.1C25,30.6,24.9,30,24.6,29.2"/>
	<path style="clip-path:url(#SVGID_00000097490502931577343170000008306614414083225010_);fill:#FFFFFF;" d="M31.2,30.3
		c0.2,0,0.3-0.1,0.4-0.2c0.1-0.1,0.1-0.2,0.1-0.4v-2.1c0-0.2,0-0.4-0.1-0.4c-0.1-0.1-0.2-0.1-0.3-0.1c0,0-0.1,0-0.1,0
		c0,0-0.1,0-0.1,0l0.1-0.5c0.4,0,0.7-0.1,1.1-0.2s0.6-0.1,0.7-0.1l0.1,0.1c-0.1,0.1-0.1,0.5-0.2,1.2c0,0.6-0.1,1.4-0.1,2.2
		c0,0.1,0,0.3,0.1,0.3c0,0.1,0.1,0.1,0.2,0.1c0.1,0,0.1,0,0.2,0c0,0,0.1,0,0.1,0l0,0l-0.1,0.6c-0.1,0-0.2,0-0.4,0
		c-0.2,0-0.4,0-0.6,0c-0.2,0-0.4,0-0.7,0c-0.2,0-0.4,0-0.5,0.1L31.2,30.3L31.2,30.3z M31.7,25.2c-0.1-0.1-0.2-0.3-0.2-0.5
		c0-0.2,0.1-0.4,0.2-0.6s0.3-0.2,0.6-0.2c0.2,0,0.4,0.1,0.5,0.2c0.1,0.1,0.2,0.3,0.2,0.5c0,0.2-0.1,0.4-0.2,0.5s-0.3,0.2-0.5,0.2
		C32,25.4,31.8,25.3,31.7,25.2"/>
	<path style="clip-path:url(#SVGID_00000097490502931577343170000008306614414083225010_);fill:#FFFFFF;" d="M37.3,30.1
		c0.1-0.1,0.1-0.2,0.1-0.4l0-1.7c0-0.3,0-0.5-0.2-0.6c-0.1-0.1-0.3-0.2-0.5-0.2c-0.2,0-0.5,0.1-0.8,0.4c-0.1,1.2-0.1,1.9-0.1,2.2
		c0,0.2,0,0.3,0.1,0.3s0.1,0.1,0.2,0.1h0.3l0,0l-0.1,0.6c-0.1,0-0.2,0-0.4,0c-0.2,0-0.4,0-0.6,0c-0.3,0-0.5,0-0.7,0s-0.4,0-0.4,0
		l0.1-0.6c0.2,0,0.3-0.1,0.4-0.1c0.1-0.1,0.1-0.2,0.1-0.4v-2c0-0.2,0-0.4-0.1-0.5s-0.2-0.1-0.4-0.1h-0.1l0,0l0-0.5
		c0.4,0,0.7-0.1,1.1-0.2s0.6-0.1,0.7-0.1l0.1,0.1c0,0,0,0.1-0.1,0.3c0,0.1,0,0.3,0,0.4l0,0c0.2-0.2,0.5-0.4,0.7-0.5s0.4-0.3,0.5-0.3
		c0.4,0,0.7,0.1,0.9,0.2c0.2,0.1,0.4,0.3,0.5,0.6c0.2-0.2,0.4-0.3,0.7-0.5s0.5-0.3,0.6-0.3c0.5,0,0.8,0.1,1.1,0.3s0.4,0.5,0.4,0.9
		c0,0.1,0,0.5-0.1,1c-0.1,0.6-0.1,1.1-0.1,1.3c0,0.2,0,0.3,0.1,0.4s0.1,0.1,0.2,0.1c0.1,0,0.1,0,0.2,0s0.1,0,0.1,0l0,0l-0.1,0.6
		c-0.1,0-0.2,0-0.4,0c-0.2,0-0.4,0-0.6,0c-0.2,0-0.3,0-0.6,0c-0.2,0-0.4,0-0.5,0l0.1-0.6c0.2,0,0.2-0.1,0.3-0.1
		c0.1-0.1,0.1-0.2,0.1-0.4l0-1.7c0-0.6-0.2-0.8-0.6-0.8c-0.2,0-0.5,0.1-0.8,0.4l-0.1,2.2c0,0.2,0,0.3,0.1,0.4s0.1,0.1,0.2,0.1
		c0.1,0,0.1,0,0.2,0s0.1,0,0.1,0l0,0L39,30.9c-0.1,0-0.2,0-0.4,0c-0.2,0-0.4,0-0.6,0c-0.2,0-0.3,0-0.6,0c-0.2,0-0.4,0-0.5,0l0.1-0.6
		C37.2,30.3,37.3,30.2,37.3,30.1"/>
	<path style="clip-path:url(#SVGID_00000097490502931577343170000008306614414083225010_);fill:#FFFFFF;" d="M45.5,30.1
		c0.1-0.1,0.1-0.2,0.1-0.4l0-1.7c0-0.3,0-0.5-0.2-0.6c-0.1-0.1-0.3-0.2-0.5-0.2c-0.2,0-0.5,0.1-0.8,0.4c-0.1,1.2-0.1,1.9-0.1,2.2
		c0,0.2,0,0.3,0.1,0.3s0.1,0.1,0.2,0.1h0.3l0,0l-0.1,0.6c-0.1,0-0.2,0-0.4,0c-0.2,0-0.4,0-0.6,0c-0.3,0-0.5,0-0.7,0s-0.4,0-0.4,0
		l0.1-0.6c0.2,0,0.3-0.1,0.4-0.1c0.1-0.1,0.1-0.2,0.1-0.4v-2c0-0.2,0-0.4-0.1-0.5s-0.2-0.1-0.4-0.1h-0.1l0,0l0-0.5
		c0.4,0,0.7-0.1,1.1-0.2s0.6-0.1,0.7-0.1l0.1,0.1c0,0,0,0.1-0.1,0.3c0,0.1,0,0.3,0,0.4l0,0c0.2-0.2,0.5-0.4,0.7-0.5s0.4-0.3,0.5-0.3
		c0.4,0,0.7,0.1,0.9,0.2c0.2,0.1,0.4,0.3,0.5,0.6c0.2-0.2,0.4-0.3,0.7-0.5s0.5-0.3,0.6-0.3c0.5,0,0.8,0.1,1.1,0.3s0.4,0.5,0.4,0.9
		c0,0.1,0,0.5-0.1,1c-0.1,0.6-0.1,1.1-0.1,1.3c0,0.2,0,0.3,0.1,0.4s0.1,0.1,0.2,0.1c0.1,0,0.1,0,0.2,0s0.1,0,0.1,0l0,0l-0.1,0.6
		c-0.1,0-0.2,0-0.4,0c-0.2,0-0.4,0-0.6,0c-0.2,0-0.3,0-0.6,0c-0.2,0-0.4,0-0.5,0l0.1-0.6c0.2,0,0.2-0.1,0.3-0.1
		c0.1-0.1,0.1-0.2,0.1-0.4l0-1.7c0-0.6-0.2-0.8-0.6-0.8c-0.2,0-0.5,0.1-0.8,0.4l-0.1,2.2c0,0.2,0,0.3,0.1,0.4s0.1,0.1,0.2,0.1
		c0.1,0,0.1,0,0.2,0s0.1,0,0.1,0l0,0l-0.1,0.6c-0.1,0-0.2,0-0.4,0c-0.2,0-0.4,0-0.6,0c-0.2,0-0.3,0-0.6,0c-0.2,0-0.4,0-0.5,0
		l0.1-0.6C45.3,30.3,45.4,30.2,45.5,30.1"/>
	<path style="clip-path:url(#SVGID_00000097490502931577343170000008306614414083225010_);fill:#FFFFFF;" d="M51.7,30.8
		c-0.2-0.1-0.5-0.1-0.6-0.2c-0.2-0.1-0.2-0.1-0.2-0.1l-0.1-0.1c0,0,0-0.1,0-0.3c0-0.1,0-0.4,0.1-0.6c0-0.2,0-0.5,0-0.7l0.8-0.1
		c0,0.4,0,0.6,0.1,0.8c0.1,0.2,0.2,0.3,0.3,0.4s0.4,0.1,0.7,0.1c0.3,0,0.6-0.1,0.7-0.2c0.2-0.1,0.3-0.3,0.3-0.6
		c0-0.2-0.1-0.4-0.3-0.5c-0.2-0.1-0.5-0.3-0.9-0.5c0,0-0.1,0-0.2-0.1c-0.5-0.2-0.9-0.5-1.1-0.7c-0.3-0.3-0.4-0.6-0.4-1
		c0-0.4,0.1-0.7,0.3-1c0.2-0.3,0.5-0.5,0.9-0.7s0.8-0.2,1.3-0.2c0.3,0,0.5,0,0.8,0.1c0.2,0,0.4,0.1,0.6,0.1c0.1,0,0.2,0.1,0.3,0.1
		l0.1,0.1c0,0,0,0.1-0.1,0.3c0,0.2-0.1,0.4-0.1,0.6s-0.1,0.5-0.1,0.8l-0.7,0.1L54,26.5c0,0,0-0.1,0-0.1c0-0.1,0-0.1,0-0.2
		c0-0.3-0.1-0.5-0.2-0.6c-0.2-0.1-0.4-0.2-0.7-0.2c-0.3,0-0.5,0.1-0.7,0.2c-0.2,0.1-0.3,0.3-0.3,0.5c0,0.1,0.1,0.3,0.2,0.4
		c0.1,0.1,0.2,0.2,0.4,0.3c0.2,0.1,0.4,0.2,0.7,0.4c0.4,0.2,0.7,0.3,0.9,0.5c0.2,0.1,0.4,0.3,0.6,0.5c0.2,0.2,0.2,0.5,0.2,0.8
		c0,0.4-0.1,0.7-0.3,1c-0.2,0.3-0.5,0.5-0.9,0.7s-0.9,0.2-1.4,0.2C52.1,30.9,51.9,30.9,51.7,30.8"/>
	<path style="clip-path:url(#SVGID_00000097490502931577343170000008306614414083225010_);fill:#FFFFFF;" d="M55.6,32.5
		c0.2,0,0.3-0.1,0.3-0.1c0.1-0.1,0.1-0.2,0.1-0.5c0-0.6,0-1.1,0-1.5v-2.7c0-0.2,0-0.4-0.1-0.5s-0.2-0.1-0.4-0.1h-0.1l0,0l0-0.5
		c0.4,0,0.7-0.1,1.1-0.2s0.6-0.1,0.7-0.1l0.1,0.1c0,0,0,0.1,0,0.2c0,0.1,0,0.2-0.1,0.4l0,0c0.5-0.5,0.8-0.7,1-0.7
		c0.4,0,0.7,0.1,1,0.3s0.5,0.4,0.7,0.7s0.2,0.7,0.2,1.1c0,0.5-0.1,0.9-0.3,1.3s-0.5,0.7-0.9,0.9c-0.4,0.2-0.8,0.3-1.3,0.3
		c-0.1,0-0.2,0-0.2,0s-0.1,0-0.2,0v0.9c0,0.3,0,0.4,0.1,0.5s0.1,0.1,0.3,0.1c0.1,0,0.2,0,0.2,0c0.1,0,0.1,0,0.2,0l0,0l-0.1,0.6
		c-0.1,0-0.3,0-0.4,0h-0.8c-0.2,0-0.5,0-0.7,0c-0.2,0-0.4,0-0.5,0L55.6,32.5L55.6,32.5z M58.7,29.7c0.2-0.2,0.3-0.6,0.3-1
		c0-0.5-0.1-0.8-0.3-1.1s-0.4-0.4-0.7-0.4c-0.1,0-0.2,0-0.3,0.1s-0.2,0.1-0.4,0.2c0,0.8-0.1,1.6-0.1,2.5c0.1,0,0.2,0.1,0.3,0.1
		c0.1,0,0.3,0,0.4,0C58.3,30.1,58.5,30,58.7,29.7"/>
	<path style="clip-path:url(#SVGID_00000097490502931577343170000008306614414083225010_);fill:#FFFFFF;" d="M63.4,30.7
		c-0.2-0.1-0.3-0.3-0.3-0.5l-0.1,0c-0.2,0.2-0.4,0.4-0.6,0.5c-0.2,0.1-0.3,0.2-0.5,0.2c-0.4,0-0.7-0.1-0.9-0.4s-0.4-0.6-0.4-1
		c0-0.2,0-0.4,0.2-0.5c0.1-0.1,0.2-0.2,0.4-0.3l1.9-0.4V28c0-0.3-0.1-0.5-0.2-0.6c-0.2-0.1-0.3-0.2-0.6-0.2c-0.2,0-0.4,0-0.6,0.1
		c-0.2,0.1-0.4,0.2-0.6,0.3l-0.1,0l-0.2-0.6c0.3-0.2,0.7-0.4,1-0.5s0.6-0.2,0.8-0.2c0.5,0,0.9,0.1,1.2,0.4c0.3,0.2,0.4,0.6,0.4,1
		c0,0.1,0,0.4-0.1,0.9c-0.1,0.6-0.1,1-0.1,1.1s0,0.2,0.1,0.3c0.1,0.1,0.2,0.1,0.2,0.1c0.1,0,0.2,0,0.2,0c0.1,0,0.2-0.1,0.2-0.1
		L65,30c-0.1,0.2-0.3,0.4-0.4,0.6s-0.3,0.3-0.5,0.4C63.8,30.9,63.5,30.8,63.4,30.7 M62.6,29.9c0.1,0,0.2-0.1,0.3-0.2l0-0.9l-1,0.3
		c-0.2,0-0.2,0.1-0.2,0.3s0,0.3,0.2,0.4c0.1,0.1,0.2,0.2,0.4,0.2C62.4,30,62.5,29.9,62.6,29.9"/>
	<path style="clip-path:url(#SVGID_00000097490502931577343170000008306614414083225010_);fill:#FFFFFF;" d="M68.4,30.7
		c-0.2-0.1-0.4-0.2-0.4-0.4c0-0.1,0.1-0.3,0.1-0.5c0.1-0.2,0.2-0.4,0.3-0.5h0.2c0,0.3,0.1,0.5,0.2,0.6s0.3,0.2,0.6,0.2
		c0.2,0,0.3-0.1,0.4-0.2s0.2-0.3,0.2-0.4s-0.1-0.3-0.2-0.5c-0.1-0.1-0.3-0.3-0.6-0.4c-0.2-0.1-0.5-0.3-0.6-0.4
		c-0.2-0.1-0.3-0.3-0.4-0.4S68,27.4,68,27.2c0-0.2,0.1-0.4,0.2-0.5c0.1-0.2,0.2-0.3,0.4-0.5c0.2-0.2,0.3-0.3,0.4-0.4
		c0.1-0.1,0.1-0.3,0.1-0.4c0-0.2-0.1-0.4-0.3-0.6s-0.4-0.2-0.7-0.2c-0.3,0-0.6,0.1-0.7,0.4s-0.2,0.6-0.2,1.2l-0.1,3.7
		c0,0.3,0.1,0.5,0.3,0.5c0.1,0,0.2,0,0.2,0c0.1,0,0.1,0,0.1,0l0,0l-0.1,0.6c-0.1,0-0.2,0-0.4,0c-0.2,0-0.4,0-0.6,0s-0.4,0-0.7,0
		c-0.3,0-0.4,0-0.5,0l0.1-0.6c0.2,0,0.3-0.1,0.4-0.2C66,30,66,29.9,66,29.6v-2.2c0-0.1-0.1-0.2-0.1-0.3c-0.1,0-0.2-0.1-0.5-0.1
		l0-0.1l0.1-0.5l0.6-0.1c0-0.9,0.2-1.6,0.6-2c0.4-0.5,1-0.7,1.8-0.7c0.3,0,0.7,0.1,0.9,0.2c0.3,0.1,0.5,0.3,0.6,0.5
		c0.2,0.2,0.2,0.4,0.2,0.7c0,0.2-0.1,0.4-0.2,0.6c-0.1,0.2-0.3,0.4-0.5,0.6c-0.2,0.2-0.3,0.3-0.3,0.4s-0.1,0.2-0.1,0.4
		c0,0.1,0.1,0.3,0.2,0.4c0.1,0.1,0.3,0.2,0.6,0.4c0.3,0.1,0.5,0.3,0.7,0.4c0.2,0.1,0.3,0.3,0.4,0.5c0.1,0.2,0.2,0.4,0.2,0.7
		c0,0.3-0.1,0.6-0.3,0.8c-0.2,0.2-0.4,0.4-0.7,0.6s-0.6,0.2-1,0.2C69,30.9,68.7,30.9,68.4,30.7"/>
</g>
</svg>
