<?xml version="1.0" encoding="UTF-8"?>
<svg id="Layer_1" data-name="Layer 1" xmlns="http://www.w3.org/2000/svg" viewBox="0 0 34.02 34.02">
  <defs>
    <style>
      .cls-1 {
        fill: #004a98;
      }

      .cls-2 {
        fill: #fff;
      }
    </style>
  </defs>
  <circle class="cls-1" cx="17.01" cy="17.01" r="17.01"/>
  <path class="cls-2" d="m30.61,21.21c-.61.22-1.7.44-3.35.55-1.6.1-3.69-.07-5.69-.73-1.11-.36-3.66-1.85-5.44-3.17-.92-.68-3.15-2.07-6.02-2.06-2.1-.06-4.45.57-6.7.99,1.36-.95,2.7-1.91,4.19-2.8,1.51-.89,3.34-1.87,5.41-1.77,1,.05,2.83.45,4.9,1.76,1.25.79,3.05,2.27,4.08,3.16,1.13.98,3.9,2.72,5.71,3.46,1.12.45,2.47.65,2.91.6"/>
</svg>