<svg xmlns="http://www.w3.org/2000/svg" width="44.002" height="23.887" viewBox="0 0 44.002 23.887">
  <g id="Pfeil" transform="translate(-26.757 -13.057)">
    <path id="Pfad_101" data-name="Pfad 101" d="M0,0V24.935" transform="translate(69.259 24.993) rotate(90)" fill="none" stroke="#f7fcff" stroke-linecap="round" stroke-width="3"/>
    <g id="Pfad_102" data-name="Pfad 102" transform="translate(29.624 24.993) rotate(-45)" fill="none" stroke-linecap="round" stroke-linejoin="round">
      <path d="M5.627,1.813l5.627,1.813c3.108,1-6.628,10.737-7.629,7.629L1.813,5.627C.243.755.493.159,5.627,1.813Z" stroke="none"/>
      <path d="M 2.09074592590332 0.9826478958129883 C 0.5206260681152344 0.9826478958129883 0.7473678588867188 2.319867134094238 1.812904357910156 5.627330780029297 L 3.625804901123047 11.25467109680176 C 4.627035140991211 14.36255931854248 14.3625545501709 4.627050399780273 11.25466442108154 3.625811576843262 L 5.627334594726562 1.812901496887207 C 3.978354454040527 1.281664848327637 2.833595275878906 0.9826478958129883 2.09074592590332 0.9826478958129883 M 2.090744972229004 -2.017349243164062 C 3.282184600830078 -2.017349243164062 4.679274559020996 -1.644369125366211 6.54726505279541 -1.042569160461426 L 12.17458438873291 0.7703313827514648 C 14.0684642791748 1.380471229553223 15.12634468078613 3.156130790710449 14.80699443817139 5.188851356506348 C 14.43498420715332 7.556751251220703 12.19924449920654 10.03582096099854 10.89964485168457 11.30281066894531 C 9.963574409484863 12.21541118621826 8.987894058227539 13.00752067565918 8.078084945678711 13.5935115814209 C 6.750414371490479 14.44864082336426 5.570464134216309 14.86433124542236 4.47081470489502 14.86433124542236 C 2.74925422668457 14.86433124542236 1.296724319458008 13.80855083465576 0.7703342437744141 12.17460060119629 L -1.042575836181641 6.547251224517822 C -1.397055625915527 5.446921348571777 -1.748225212097168 4.297321319580078 -1.915995597839355 3.344301223754883 C -2.017285346984863 2.768911361694336 -2.325545310974121 1.017921447753906 -1.271775245666504 -0.4286584854125977 C -0.8395652770996094 -1.021988868713379 0.1720046997070312 -2.017349243164062 2.090744972229004 -2.017349243164062 Z" stroke="none" fill="#f7fcff"/>
    </g>
  </g>
</svg>
