<?xml version="1.0" encoding="utf-8"?>
<!-- Generator: Adobe Illustrator 27.2.0, SVG Export Plug-In . SVG Version: 6.00 Build 0)  -->
<svg version="1.1" id="Layer_1" xmlns="http://www.w3.org/2000/svg" xmlns:xlink="http://www.w3.org/1999/xlink" x="0px" y="0px"
	 viewBox="0 0 16.2 16.6" style="enable-background:new 0 0 16.2 16.6;" xml:space="preserve">
<style type="text/css">
	.st0{fill:#A2A5A6;}
	.st1{clip-path:url(#SVGID_00000077316047289560310880000010420128618011388554_);}
	.st2{fill:none;}
	.st3{clip-path:url(#SVGID_00000126295864577013273130000001886713300264772017_);}
	.st4{fill:#125D89;stroke:#125D89;stroke-width:0.5;}
	.st5{clip-path:url(#SVGID_00000038377022502830896890000007207627206066892709_);}
	.st6{fill:#125D89;}
	.st7{fill:none;stroke:#125D89;stroke-width:2;stroke-linecap:round;}
	.st8{fill:none;stroke:#125D89;stroke-width:2;}
	.st9{fill:#125D89;stroke:#125D89;}
	.st10{clip-path:url(#SVGID_00000166649863037051885070000012379829772161334952_);}
</style>
<g>
	<path class="st0" d="M-43.3,16.4c-1,0-2-0.2-2.9-0.7c-0.8-0.4-1.4-1.1-1.7-1.8c-0.4-0.9-0.6-1.8-0.6-2.8v-3c0-1,0.2-1.9,0.6-2.8
		c0.4-0.8,1-1.4,1.7-1.8c0.9-0.5,1.9-0.7,2.9-0.7c0.8,0,1.6,0.1,2.3,0.3c0.6,0.2,1.2,0.5,1.6,0.9c0.4,0.3,0.7,0.8,1,1.2
		c0.2,0.4,0.3,0.9,0.4,1.4c0,0.1,0,0.2-0.1,0.3c-0.1,0.1-0.2,0.1-0.3,0.1h-1c-0.1,0-0.2,0-0.3-0.1c-0.1-0.1-0.2-0.2-0.2-0.3
		c-0.1-0.7-0.6-1.3-1.2-1.7c-0.7-0.4-1.4-0.5-2.2-0.5c-0.9-0.1-1.8,0.3-2.4,0.9c-0.7,0.8-1,1.8-0.9,2.9V11c-0.1,1,0.2,2.1,0.9,2.9
		c0.7,0.6,1.5,0.9,2.4,0.9c0.8,0,1.5-0.1,2.2-0.5c0.6-0.4,1.1-1,1.2-1.7c0-0.1,0.1-0.2,0.2-0.3c0.1-0.1,0.2-0.1,0.3-0.1h1
		c0.1,0,0.2,0,0.3,0.1c0.1,0.1,0.1,0.2,0.1,0.3c0,0.5-0.1,1-0.4,1.4c-0.2,0.5-0.6,0.9-1,1.2c-0.5,0.4-1,0.7-1.6,0.9
		C-41.7,16.3-42.5,16.4-43.3,16.4z M-49.7,11.7c-0.2,0-0.4-0.2-0.4-0.4c0,0,0,0,0,0v-0.7c0-0.2,0.2-0.4,0.4-0.4c0,0,0,0,0,0h6.8
		c0.2,0,0.4,0.2,0.4,0.4c0,0,0,0,0,0v0.7c0,0.2-0.2,0.4-0.4,0.4c0,0,0,0,0,0H-49.7z M-49.7,9c-0.2,0-0.4-0.2-0.4-0.4c0,0,0,0,0,0
		V7.9c0-0.2,0.2-0.4,0.4-0.4c0,0,0,0,0,0h6.8c0.2,0,0.4,0.2,0.4,0.4c0,0,0,0,0,0v0.7c0,0.2-0.2,0.4-0.4,0.4c0,0,0,0,0,0H-49.7z"/>
	<path class="st0" d="M-43.5,16.6c-1,0-1.9-0.2-2.8-0.7c-0.8-0.5-1.4-1.1-1.8-2c-0.3-0.7-0.5-1.3-0.6-2h-1c-0.4,0-0.7-0.3-0.7-0.6
		l0-0.7c0-0.3,0.3-0.7,0.6-0.7h1V9.3h-0.9c0,0,0,0,0,0c-0.3,0-0.6-0.3-0.7-0.6l0-0.7c0-0.2,0.1-0.3,0.2-0.5s0.3-0.2,0.5-0.2l1,0
		c0.1-0.7,0.3-1.4,0.6-2.1c0.4-0.8,1-1.5,1.8-1.9c0.9-0.5,2-0.7,3-0.7c0.8,0,1.6,0.1,2.4,0.3c0.6,0.2,1.2,0.5,1.7,0.9
		c0.4,0.4,0.8,0.8,1,1.3c0.2,0.5,0.4,1,0.4,1.5c0,0.2,0,0.4-0.2,0.5c-0.1,0.1-0.3,0.2-0.4,0.2c0,0,0,0,0,0h-1c-0.2,0-0.3,0-0.4-0.1
		C-40,7-40.1,6.9-40.1,6.7c-0.1-0.6-0.5-1.2-1.1-1.6c-0.6-0.3-1.3-0.5-2-0.5c-0.9,0-1.7,0.3-2.3,0.8C-46,6-46.2,6.6-46.3,7.3h3.5
		c0.2,0,0.3,0.1,0.5,0.2c0.1,0.1,0.2,0.3,0.2,0.5v0.7c0,0.4-0.3,0.7-0.6,0.7h-3.6v0.7h3.5c0.2,0,0.3,0.1,0.5,0.2
		c0.1,0.1,0.2,0.3,0.2,0.5v0.7c0,0.2-0.1,0.3-0.2,0.5c-0.1,0.1-0.3,0.2-0.5,0.2h-3.5c0.1,0.7,0.4,1.3,0.8,1.8
		c0.6,0.5,1.4,0.8,2.2,0.8c0.7,0,1.5-0.1,2.1-0.5c0.5-0.3,0.9-0.9,1.1-1.5c0-0.2,0.1-0.3,0.3-0.5c0.2-0.1,0.3-0.2,0.5-0.2h1
		c0.2,0,0.3,0.1,0.5,0.2c0.1,0.1,0.2,0.3,0.2,0.5c0,0.5-0.2,1-0.4,1.5c-0.3,0.5-0.6,1-1,1.3c-0.5,0.4-1.1,0.7-1.7,0.9
		c-0.8,0.2-1.6,0.4-2.4,0.4C-43.4,16.6-43.4,16.6-43.5,16.6z M-48.2,11.9c0.1,0.6,0.3,1.2,0.5,1.8c0.3,0.7,0.9,1.3,1.6,1.7
		c0.8,0.4,1.8,0.7,2.8,0.6h0c0.8,0,1.5-0.1,2.2-0.3c0.6-0.2,1.1-0.5,1.6-0.9c0.4-0.3,0.7-0.7,0.9-1.2c0.2-0.4,0.3-0.8,0.3-1.3l0-0.1
		c0,0-0.1,0-0.1,0h-1c-0.1,0-0.1,0-0.1,0c0,0-0.1,0.1-0.1,0.2c-0.2,0.8-0.6,1.5-1.3,1.9c-0.7,0.4-1.5,0.6-2.3,0.5
		c-0.9,0.1-1.9-0.3-2.6-1c-0.5-0.6-0.8-1.4-0.9-2.1H-48.2z M-48.8,10.4h-0.9c-0.1,0-0.2,0.1-0.2,0.2l0,0.7c0,0.1,0.1,0.2,0.2,0.2h1
		c0-0.1,0-0.2,0-0.3V10.4z M-46.4,11.4h3.5c0.1,0,0.2-0.1,0.2-0.2v-0.7c0-0.1,0-0.1-0.1-0.1c0,0-0.1,0-0.1,0h-3.5V11
		C-46.4,11.2-46.4,11.3-46.4,11.4z M-48.3,11.4h1.4c0-0.1,0-0.3,0-0.4l0-0.6h-1.4v0.7C-48.3,11.2-48.3,11.3-48.3,11.4z M-48.3,9.3
		v0.7h1.4V9.3H-48.3z M-48.8,7.8h-1c-0.1,0-0.1,0-0.1,0.1s0,0.1,0,0.1l0,0.7c0,0.1,0.1,0.2,0.2,0.2h1V8.1C-48.8,8-48.8,7.9-48.8,7.8
		z M-46.4,8.8h3.5c0.1,0,0.1,0,0.1-0.1c0,0,0-0.1,0-0.1V7.9c0-0.1,0-0.1-0.1-0.1c0,0-0.1,0-0.1,0h-3.5c0,0.1,0,0.3,0,0.4L-46.4,8.8z
		 M-48.3,8.8h1.4V8.2c0-0.1,0-0.3,0-0.4h-1.4c0,0.1,0,0.2,0,0.3V8.8z M-43.5,3.1c-0.9,0-1.8,0.2-2.6,0.6c-0.7,0.4-1.3,1-1.6,1.7
		C-48,6-48.1,6.6-48.2,7.3h1.4c0.1-0.8,0.4-1.5,0.9-2.1c0.7-0.7,1.7-1,2.6-1c0.8,0,1.6,0.2,2.3,0.5c0.7,0.4,1.2,1.1,1.3,1.9
		c0,0.1,0.1,0.1,0.1,0.2c0,0,0.1,0,0.1,0h1c0,0,0.1,0,0.1,0l0,0l0-0.1c0-0.5-0.1-0.9-0.3-1.3c-0.2-0.4-0.5-0.8-0.9-1.2
		c-0.5-0.4-1-0.7-1.6-0.9c-0.7-0.2-1.5-0.3-2.2-0.3C-43.3,3.1-43.4,3.1-43.5,3.1z"/>
</g>
<g>
	<defs>
		<rect id="SVGID_1_" x="-33.6" y="0.8" width="14.2" height="17.6"/>
	</defs>
	<clipPath id="SVGID_00000008115234694148027770000002746524007318928783_">
		<use xlink:href="#SVGID_1_"  style="overflow:visible;"/>
	</clipPath>
	<g style="clip-path:url(#SVGID_00000008115234694148027770000002746524007318928783_);">
		<g>
			<path class="st0" d="M-25.3,6.1v4.2c0,0.2-0.1,0.3-0.3,0.3c0,0,0,0,0,0h-3c-0.2,0-0.3-0.1-0.3-0.3c0,0,0,0,0,0V9.7
				c0-0.2,0.1-0.3,0.3-0.3c0,0,0,0,0,0h2.1V6.1c0-0.2,0.1-0.3,0.3-0.3c0,0,0,0,0,0h0.6C-25.4,5.8-25.3,6-25.3,6.1
				C-25.3,6.1-25.3,6.1-25.3,6.1z M-22.1,11.9l0.3-0.6c0.3-0.6,0.4-1.3,0.3-2c0-0.9-0.2-1.8-0.7-2.5C-22.6,6.1-23.2,5.5-24,5
				c-1.6-0.9-3.5-0.9-5.1,0c-0.8,0.4-1.4,1.1-1.8,1.8c-0.9,1.6-0.9,3.5,0,5.1c0.4,0.8,1.1,1.4,1.8,1.8c1.6,0.9,3.5,0.9,5.1,0
				C-23.2,13.3-22.6,12.7-22.1,11.9L-22.1,11.9z M-20.3,5.8l0.5,0.8c0.4,0.9,0.5,1.8,0.5,2.8c0,1.3-0.3,2.5-1,3.6
				c-0.6,1.1-1.5,2-2.6,2.6c-2.2,1.3-4.9,1.3-7.1,0c-1.1-0.6-2-1.5-2.6-2.6c-1.3-2.2-1.3-4.9,0-7.1c0.6-1.1,1.5-2,2.6-2.6
				c2.2-1.3,4.9-1.3,7.1,0C-21.8,3.9-20.9,4.8-20.3,5.8L-20.3,5.8z"/>
		</g>
	</g>
</g>
<g transform="translate(-1742 -1503.302)">
	<g>
		<path class="st0" d="M1734.9,1505.8h-4c-0.6,0-1-0.4-1-1s0.4-1,1-1h4c0.6,0,1,0.4,1,1S1735.5,1505.8,1734.9,1505.8z"/>
	</g>
	<g>
		<path class="st0" d="M1733,1508.1c-0.6,0-1-0.4-1-1v-2.2c0-0.6,0.4-1,1-1s1,0.4,1,1v2.2C1734,1507.6,1733.5,1508.1,1733,1508.1z"
			/>
	</g>
	<g transform="translate(1742 1506.942)">
		<g>
			<circle class="st2" cx="-9.2" cy="6.5" r="6.4"/>
		</g>
		<g>
			<path class="st0" d="M-9.2,13.1c-3.6,0-6.5-2.9-6.5-6.5S-12.8,0-9.2,0s6.5,2.9,6.5,6.5S-5.6,13.1-9.2,13.1z M-9.2,2
				c-2.5,0-4.5,2-4.5,4.5s2,4.5,4.5,4.5s4.5-2,4.5-4.5S-6.7,2-9.2,2z"/>
		</g>
	</g>
	<g>
		<path class="st0" d="M1732.7,1510.4v3.1l2.2-2.2c-0.3-0.3-0.6-0.5-1-0.7C1733.5,1510.5,1733.1,1510.4,1732.7,1510.4z"/>
		<path class="st0" d="M1732.2,1514.7v-4.9l0.5,0c0.5,0,0.9,0.1,1.3,0.3c0.4,0.2,0.8,0.5,1.2,0.8l0.4,0.4L1732.2,1514.7z
			 M1733.2,1510.9v1.3l0.9-0.9c-0.1-0.1-0.3-0.2-0.5-0.3C1733.5,1511,1733.4,1511,1733.2,1510.9z"/>
	</g>
</g>
<g>
	<defs>
		<rect id="SVGID_00000052087660747684447470000017149652983316388782_" x="1" y="0.9" width="14.2" height="16.2"/>
	</defs>
	<clipPath id="SVGID_00000079472285660044558570000003752454923772291728_">
		<use xlink:href="#SVGID_00000052087660747684447470000017149652983316388782_"  style="overflow:visible;"/>
	</clipPath>
	<g style="clip-path:url(#SVGID_00000079472285660044558570000003752454923772291728_);">
		<g>
			<path class="st0" d="M2.7,15h10.8V6.7H2.7V15z M5.4,5.1V2.6c0-0.1-0.1-0.3-0.2-0.3c0,0,0,0,0,0H4.6c-0.1,0-0.3,0.1-0.3,0.3
				c0,0,0,0,0,0v2.5c0,0.1,0.1,0.3,0.3,0.3c0,0,0,0,0,0h0.5C5.2,5.4,5.4,5.2,5.4,5.1C5.4,5.1,5.4,5.1,5.4,5.1z M11.9,5.1V2.6
				c0-0.1-0.1-0.3-0.3-0.3c0,0,0,0,0,0h-0.5c-0.1,0-0.3,0.1-0.3,0.3c0,0,0,0,0,0v2.5c0,0.1,0.1,0.3,0.2,0.3c0,0,0,0,0,0h0.5
				C11.8,5.4,11.9,5.2,11.9,5.1C11.9,5.1,11.9,5.1,11.9,5.1z M15.2,4.5v10.9c0,0.6-0.5,1.1-1.1,1.1h-12C1.5,16.5,1,16,1,15.4V4.5
				c0-0.6,0.5-1.1,1.1-1.1h1.1V2.6c0-0.8,0.6-1.4,1.4-1.4h0.5c0.8,0,1.4,0.6,1.4,1.4v0.8h3.3V2.6c0-0.8,0.6-1.4,1.4-1.4h0.5
				c0.8,0,1.4,0.6,1.4,1.4v0.8h1.1C14.7,3.4,15.2,3.9,15.2,4.5L15.2,4.5z"/>
		</g>
	</g>
</g>
<path class="st4" d="M-43.3-4c-1,0-2-0.2-2.9-0.7c-0.8-0.4-1.4-1.1-1.7-1.8c-0.4-0.9-0.6-1.8-0.6-2.8v-3c0-1,0.2-1.9,0.6-2.8
	c0.4-0.8,1-1.4,1.7-1.8c0.9-0.5,1.9-0.7,2.9-0.7c0.8,0,1.6,0.1,2.3,0.3c0.6,0.2,1.2,0.5,1.6,0.9c0.4,0.3,0.7,0.8,1,1.2
	c0.2,0.4,0.3,0.9,0.4,1.4c0,0.1,0,0.2-0.1,0.3c-0.1,0.1-0.2,0.1-0.3,0.1h-1c-0.1,0-0.2,0-0.3-0.1c-0.1-0.1-0.2-0.2-0.2-0.3
	c-0.1-0.7-0.6-1.3-1.2-1.7c-0.7-0.4-1.4-0.5-2.2-0.5c-0.9-0.1-1.8,0.3-2.4,0.9c-0.7,0.8-1,1.8-0.9,2.9v2.9c-0.1,1,0.2,2.1,0.9,2.9
	c0.7,0.6,1.5,0.9,2.4,0.9c0.8,0,1.5-0.1,2.2-0.5c0.6-0.4,1.1-1,1.2-1.7c0-0.1,0.1-0.2,0.2-0.3c0.1-0.1,0.2-0.1,0.3-0.1h1
	c0.1,0,0.2,0,0.3,0.1C-38-8-38-7.9-38-7.8c0,0.5-0.1,1-0.4,1.4c-0.2,0.5-0.6,0.9-1,1.2c-0.5,0.4-1,0.7-1.6,0.9
	C-41.7-4.1-42.5-3.9-43.3-4z M-49.7-8.6c-0.2,0-0.4-0.2-0.4-0.4c0,0,0,0,0,0v-0.7c0-0.2,0.2-0.4,0.4-0.4c0,0,0,0,0,0h6.8
	c0.2,0,0.4,0.2,0.4,0.4c0,0,0,0,0,0v0.7c0,0.2-0.2,0.4-0.4,0.4c0,0,0,0,0,0H-49.7z M-49.7-11.3c-0.2,0-0.4-0.2-0.4-0.4c0,0,0,0,0,0
	v-0.7c0-0.2,0.2-0.4,0.4-0.4c0,0,0,0,0,0h6.8c0.2,0,0.4,0.2,0.4,0.4c0,0,0,0,0,0v0.7c0,0.2-0.2,0.4-0.4,0.4c0,0,0,0,0,0H-49.7z"/>
<g>
	<defs>
		<rect id="SVGID_00000029047294697110729760000011379555838123893635_" x="-33.6" y="-19.6" width="14.2" height="17.6"/>
	</defs>
	<clipPath id="SVGID_00000155126865526791752500000016900485569352925837_">
		<use xlink:href="#SVGID_00000029047294697110729760000011379555838123893635_"  style="overflow:visible;"/>
	</clipPath>
	<g style="clip-path:url(#SVGID_00000155126865526791752500000016900485569352925837_);">
		<path class="st6" d="M-25.3-14.2v4.2c0,0.2-0.1,0.3-0.3,0.3c0,0,0,0,0,0h-3c-0.2,0-0.3-0.1-0.3-0.3c0,0,0,0,0,0v-0.6
			c0-0.2,0.1-0.3,0.3-0.3c0,0,0,0,0,0h2.1v-3.3c0-0.2,0.1-0.3,0.3-0.3c0,0,0,0,0,0h0.6C-25.4-14.5-25.3-14.4-25.3-14.2
			C-25.3-14.2-25.3-14.2-25.3-14.2z M-22.1-8.4l0.3-0.6c0.3-0.6,0.4-1.3,0.3-2c0-0.9-0.2-1.8-0.7-2.5c-0.4-0.8-1.1-1.4-1.8-1.8
			c-1.6-0.9-3.5-0.9-5.1,0c-0.8,0.4-1.4,1.1-1.8,1.8c-0.9,1.6-0.9,3.5,0,5.1c0.4,0.8,1.1,1.4,1.8,1.8c1.6,0.9,3.5,0.9,5.1,0
			C-23.2-7-22.6-7.6-22.1-8.4L-22.1-8.4z M-20.3-14.5l0.5,0.8c0.4,0.9,0.5,1.8,0.5,2.8c0,1.3-0.3,2.5-1,3.6c-0.6,1.1-1.5,2-2.6,2.6
			c-2.2,1.3-4.9,1.3-7.1,0c-1.1-0.6-2-1.5-2.6-2.6c-1.3-2.2-1.3-4.9,0-7.1c0.6-1.1,1.5-2,2.6-2.6c2.2-1.3,4.9-1.3,7.1,0
			C-21.8-16.5-20.9-15.6-20.3-14.5L-20.3-14.5z"/>
	</g>
</g>
<g transform="translate(-1742 -1503.302)">
	<path class="st7" d="M1731,1484.5h4"/>
	<path class="st7" d="M1733,1484.5v2.2"/>
	<g transform="translate(1742 1506.942)">
		<circle class="st2" cx="-9.2" cy="-13.8" r="6.4"/>
		<circle class="st8" cx="-9.2" cy="-13.8" r="5.5"/>
	</g>
	<path class="st9" d="M1732.7,1490v3.1l2.2-2.2c-0.3-0.3-0.6-0.5-1-0.7C1733.5,1490.1,1733.1,1490.1,1732.7,1490z"/>
</g>
<g>
	<defs>
		<rect id="SVGID_00000165219868283400972880000000842271523518872753_" x="1" y="-19.4" width="14.2" height="16.2"/>
	</defs>
	<clipPath id="SVGID_00000101075267881468765390000016812945812258591643_">
		<use xlink:href="#SVGID_00000165219868283400972880000000842271523518872753_"  style="overflow:visible;"/>
	</clipPath>
	<g style="clip-path:url(#SVGID_00000101075267881468765390000016812945812258591643_);">
		<path class="st6" d="M2.7-5.3h10.8v-8.3H2.7V-5.3z M5.4-15.3v-2.5c0-0.1-0.1-0.3-0.2-0.3c0,0,0,0,0,0H4.6c-0.1,0-0.3,0.1-0.3,0.3
			c0,0,0,0,0,0v2.5c0,0.1,0.1,0.3,0.3,0.3c0,0,0,0,0,0h0.5C5.2-15,5.4-15.1,5.4-15.3C5.4-15.2,5.4-15.2,5.4-15.3z M11.9-15.3v-2.5
			c0-0.1-0.1-0.3-0.3-0.3c0,0,0,0,0,0h-0.5c-0.1,0-0.3,0.1-0.3,0.3c0,0,0,0,0,0v2.5c0,0.1,0.1,0.3,0.2,0.3c0,0,0,0,0,0h0.5
			C11.8-15,11.9-15.1,11.9-15.3C11.9-15.2,11.9-15.2,11.9-15.3z M15.2-15.8v10.9c0,0.6-0.5,1.1-1.1,1.1h-12C1.5-3.8,1-4.3,1-4.9
			v-10.9c0-0.6,0.5-1.1,1.1-1.1h1.1v-0.8c0-0.8,0.6-1.4,1.4-1.4h0.5c0.8,0,1.4,0.6,1.4,1.4v0.8h3.3v-0.8c0-0.8,0.6-1.4,1.4-1.4h0.5
			c0.8,0,1.4,0.6,1.4,1.4v0.8h1.1C14.7-16.9,15.2-16.4,15.2-15.8L15.2-15.8z"/>
	</g>
</g>
</svg>
